<?xml version="1.0" encoding="UTF-8"?>
<svg id="Layer_2" data-name="Layer 2" xmlns="http://www.w3.org/2000/svg" viewBox="0 0 388.96 82.94">
  <defs>
    <style>
      .cls-1 {
        fill: #25d366;
        stroke-width: 0px;
      }
    </style>
  </defs>
  <g id="Layer_1-2" data-name="Layer 1">
    <g>
      <g>
        <path class="cls-1" d="M79.68,25.35c-2.09-4.94-5.08-9.37-8.9-13.19-3.81-3.81-8.24-6.8-13.18-8.9-5.11-2.17-10.54-3.26-16.12-3.26-11.08,0-21.49,4.31-29.33,12.14C4.32,19.98,0,30.39,0,41.47c0,6.69,1.64,13.34,4.72,19.24.06.12.08.28.03.43l-3.68,12.96c-.57,2.01-.18,4.12,1.09,5.78,1.24,1.64,3.22,2.62,5.27,2.62.61,0,1.22-.08,1.81-.25l13.44-3.81c5.78,2.94,12.27,4.49,18.8,4.49,11.07,0,21.49-4.32,29.33-12.14,7.83-7.83,12.14-18.25,12.14-29.33,0-5.58-1.1-11.01-3.27-16.12ZM41.48,78.83c-6.25,0-12.14-1.53-17.31-4.24-.65-.34-1.41-.43-2.12-.23l-13.93,3.95c-1.87.53-3.61-1.2-3.07-3.07l3.67-12.96c.34-1.16.22-2.4-.34-3.47-2.71-5.18-4.25-11.07-4.25-17.32C4.12,20.84,20.85,4.11,41.48,4.11s37.35,16.78,37.35,37.36-16.72,37.35-37.35,37.35Z"/>
        <path class="cls-1" d="M31.61,52.51c0,.25.14.48.36.59,2.75,1.33,8.67,2.39,8.67,2.39,2.51-.02,6.08-.25,10.35-1.29.22-.05.39-.25.4-.48.13-2.17.26-4.34.39-6.51.03-.45.36-.83.8-.92,3.19-.63,6.38-1.27,9.57-1.9.41-.08.83.08,1.08.41.49.64.99,1.29,1.48,1.93.16.21.29.46.36.72.42,1.46.66,3.31.11,5.22-2.3,7.96-16.75,11.16-27.42,9.61-6.7-.97-18.68-4.79-20.18-12.82-.37-2.01-.01-3.86.48-5.3.09-.27.26-.51.49-.69l1.96-1.58c.6-.49,1.44-.57,2.12-.21,2.31,1.22,4.62,2.44,6.93,3.66,1.33.7,2.16,2.1,2.12,3.61-.03,1.18-.05,2.37-.08,3.55Z"/>
        <g>
          <ellipse class="cls-1" cx="32.55" cy="30.13" rx="3.33" ry="6.19"/>
          <ellipse class="cls-1" cx="50.41" cy="30.13" rx="3.33" ry="6.19"/>
        </g>
      </g>
      <g>
        <path class="cls-1" d="M99.42,15.68l9.74,42.01,11.67-42.01h7.59l11.67,42.01,9.74-42.01h7.66l-13.57,51.64h-7.35l-11.92-42.82-11.99,42.82h-7.35l-13.5-51.64h7.59Z"/>
        <path class="cls-1" d="M163.12,15.51h6.33v19.27c1.5-1.9,2.85-3.23,4.04-4.01,2.04-1.34,4.58-2,7.63-2,5.46,0,9.16,1.91,11.11,5.73,1.05,2.09,1.58,4.98,1.58,8.68v24.15h-6.5v-23.73c0-2.77-.35-4.79-1.05-6.08-1.15-2.06-3.3-3.09-6.47-3.09-2.62,0-5,.9-7.14,2.71s-3.2,5.21-3.2,10.23v19.97h-6.33V15.51Z"/>
        <path class="cls-1" d="M223.34,44.51c1.45-.19,2.43-.8,2.92-1.83.28-.56.42-1.37.42-2.43,0-2.16-.77-3.72-2.3-4.69s-3.73-1.46-6.59-1.46c-3.3,0-5.65.89-7.03,2.67-.77.98-1.28,2.45-1.51,4.39h-5.91c.12-4.64,1.62-7.87,4.52-9.69s6.25-2.72,10.07-2.72c4.43,0,8.03.84,10.79,2.53,2.74,1.69,4.11,4.31,4.11,7.88v21.69c0,.66.13,1.18.4,1.58s.84.6,1.71.6c.28,0,.6-.02.95-.05s.73-.09,1.12-.16v4.68c-.98.28-1.73.46-2.25.53s-1.22.11-2.11.11c-2.18,0-3.76-.77-4.75-2.32-.52-.82-.88-1.98-1.09-3.48-1.29,1.69-3.14,3.15-5.55,4.39s-5.07,1.86-7.98,1.86c-3.49,0-6.35-1.06-8.56-3.18s-3.32-4.78-3.32-7.96c0-3.49,1.09-6.2,3.27-8.12s5.04-3.11,8.58-3.55l10.09-1.27ZM210.02,61.63c1.34,1.05,2.92,1.58,4.75,1.58,2.23,0,4.38-.52,6.47-1.55,3.52-1.71,5.27-4.51,5.27-8.4v-5.1c-.77.49-1.77.9-2.99,1.23s-2.41.56-3.59.7l-3.83.49c-2.3.3-4.02.79-5.17,1.44-1.95,1.1-2.92,2.86-2.92,5.27,0,1.83.67,3.27,2,4.32Z"/>
        <path class="cls-1" d="M281.03,19.45c3.61,3.45,5.61,7.36,6.01,11.74h-6.82c-.77-3.33-2.31-5.96-4.62-7.91s-5.55-2.92-9.72-2.92c-5.09,0-9.19,1.79-12.32,5.36s-4.69,9.05-4.69,16.44c0,6.05,1.41,10.95,4.24,14.71s7.04,5.64,12.64,5.64c5.16,0,9.08-1.98,11.78-5.94,1.43-2.09,2.5-4.83,3.2-8.23h6.82c-.61,5.44-2.62,10-6.05,13.68-4.1,4.43-9.63,6.64-16.59,6.64-6,0-11.04-1.82-15.12-5.45-5.37-4.8-8.05-12.22-8.05-22.25,0-7.62,2.02-13.86,6.05-18.74,4.36-5.3,10.37-7.95,18.04-7.95,6.54,0,11.61,1.72,15.22,5.17Z"/>
        <path class="cls-1" d="M295.2,15.51h6.33v19.27c1.5-1.9,2.85-3.23,4.04-4.01,2.04-1.34,4.58-2,7.63-2,5.46,0,9.16,1.91,11.11,5.73,1.05,2.09,1.58,4.98,1.58,8.68v24.15h-6.5v-23.73c0-2.77-.35-4.79-1.05-6.08-1.15-2.06-3.3-3.09-6.47-3.09-2.62,0-5,.9-7.14,2.71s-3.2,5.21-3.2,10.23v19.97h-6.33V15.51Z"/>
        <path class="cls-1" d="M355.42,44.51c1.45-.19,2.43-.8,2.92-1.83.28-.56.42-1.37.42-2.43,0-2.16-.77-3.72-2.3-4.69s-3.73-1.46-6.59-1.46c-3.3,0-5.65.89-7.03,2.67-.77.98-1.28,2.45-1.51,4.39h-5.91c.12-4.64,1.62-7.87,4.52-9.69s6.25-2.72,10.07-2.72c4.43,0,8.03.84,10.79,2.53,2.74,1.69,4.11,4.31,4.11,7.88v21.69c0,.66.13,1.18.4,1.58s.84.6,1.71.6c.28,0,.6-.02.95-.05s.73-.09,1.12-.16v4.68c-.98.28-1.73.46-2.25.53s-1.22.11-2.11.11c-2.18,0-3.76-.77-4.75-2.32-.52-.82-.88-1.98-1.09-3.48-1.29,1.69-3.14,3.15-5.55,4.39s-5.07,1.86-7.98,1.86c-3.49,0-6.35-1.06-8.56-3.18s-3.32-4.78-3.32-7.96c0-3.49,1.09-6.2,3.27-8.12s5.04-3.11,8.58-3.55l10.09-1.27ZM342.1,61.63c1.34,1.05,2.92,1.58,4.75,1.58,2.23,0,4.38-.52,6.47-1.55,3.52-1.71,5.27-4.51,5.27-8.4v-5.1c-.77.49-1.77.9-2.99,1.23s-2.41.56-3.59.7l-3.83.49c-2.3.3-4.02.79-5.17,1.44-1.95,1.1-2.92,2.86-2.92,5.27,0,1.83.67,3.27,2,4.32Z"/>
        <path class="cls-1" d="M376.55,19.17h6.4v10.51h6.01v5.17h-6.01v24.57c0,1.31.45,2.19,1.34,2.64.49.26,1.31.39,2.46.39.3,0,.63,0,.98-.02s.76-.04,1.23-.09v4.99c-.73.21-1.48.36-2.27.46s-1.63.14-2.55.14c-2.95,0-4.96-.76-6.01-2.27s-1.58-3.47-1.58-5.89v-24.93h-5.1v-5.17h5.1v-10.51Z"/>
      </g>
    </g>
  </g>
</svg>